<svg xmlns="http://www.w3.org/2000/svg" width="12.997" height="14.33" viewBox="0 0 12.997 14.33">
    <g data-name="Group 19071">
        <path data-name="Path 14985" d="M1.32 7.053H13.2" transform="translate(-.758 -1.618)" style="fill:none;stroke:#7b6f72;stroke-linecap:round;stroke-linejoin:round"/>
        <path data-name="Path 14986" d="M11.332 9.982h.006" transform="translate(-1.872 -1.944)" style="fill:none;stroke:#7b6f72;stroke-linecap:round;stroke-linejoin:round"/>
        <path data-name="Path 14987" d="M8 9.982h.01" transform="translate(-1.502 -1.944)" style="fill:none;stroke:#7b6f72;stroke-linecap:round;stroke-linejoin:round"/>
        <path data-name="Path 14988" d="M4.668 9.982h.006" transform="translate(-1.131 -1.944)" style="fill:none;stroke:#7b6f72;stroke-linecap:round;stroke-linejoin:round"/>
        <path data-name="Path 14989" d="M11.332 12.9h.006" transform="translate(-1.872 -2.269)" style="fill:none;stroke:#7b6f72;stroke-linecap:round;stroke-linejoin:round"/>
        <path data-name="Path 14990" d="M8 12.9h.01" transform="translate(-1.502 -2.269)" style="fill:none;stroke:#7b6f72;stroke-linecap:round;stroke-linejoin:round"/>
        <path data-name="Path 14991" d="M4.668 12.9h.006" transform="translate(-1.131 -2.269)" style="fill:none;stroke:#7b6f72;stroke-linecap:round;stroke-linejoin:round"/>
        <path data-name="Path 14992" d="M11.033 1.5v2.193" transform="translate(-1.839 -1)" style="fill:none;stroke:#7b6f72;stroke-linecap:round;stroke-linejoin:round"/>
        <path data-name="Path 14993" d="M4.974 1.5v2.193" transform="translate(-1.165 -1)" style="fill:none;stroke:#7b6f72;stroke-linecap:round;stroke-linejoin:round"/>
        <path data-name="Path 14994" d="M10.073 2.684H4.43a2.868 2.868 0 0 0-3.18 3.095v6.032a2.9 2.9 0 0 0 3.18 3.151h5.637a2.87 2.87 0 0 0 3.18-3.1V5.779a2.858 2.858 0 0 0-3.174-3.095z" transform="translate(-.75 -1.132)" style="fill-rule:evenodd;fill:none;stroke:#7b6f72;stroke-linecap:round;stroke-linejoin:round"/>
    </g>
</svg>
