<svg xmlns="http://www.w3.org/2000/svg" width="13.296" height="14.396" viewBox="0 0 13.296 14.396">
    <g data-name="Iconly/Light/Delete">
        <path data-name="Stroke 1" d="M15.256 9.468s-.387 4.8-.612 6.828a1.6 1.6 0 0 1-1.682 1.551c-1.861.034-3.724.036-5.584 0A1.579 1.579 0 0 1 5.745 16.3c-.226-2.041-.611-6.833-.611-6.833" transform="translate(-3.547 -4.077)" style="fill:none;stroke:#f89521;stroke-linecap:round;stroke-linejoin:round;stroke-width:1.2px"/>
        <path data-name="Stroke 3" d="M15.846 6.24H3.75" transform="translate(-3.15 -3.151)" style="fill:none;stroke:#f89521;stroke-linecap:round;stroke-linejoin:round;stroke-width:1.2px"/>
        <path data-name="Stroke 5" d="M14.452 5.239A1.175 1.175 0 0 1 13.3 4.3l-.173-.867a.913.913 0 0 0-.882-.677h-3.02a.913.913 0 0 0-.882.677L8.17 4.3a1.175 1.175 0 0 1-1.152.944" transform="translate(-4.087 -2.151)" style="fill:none;stroke:#f89521;stroke-linecap:round;stroke-linejoin:round;stroke-width:1.2px"/>
    </g>
</svg>
