<svg xmlns="http://www.w3.org/2000/svg" width="13.193" height="13.193" viewBox="0 0 13.193 13.193">
    <g data-name="Group 19020">
        <path data-name="Path 14966" d="M1175.25-4282.724a6.471 6.471 0 0 1-6.452-6.5 6.472 6.472 0 0 1 6.5-6.445 6.471 6.471 0 0 1 6.439 6.485 6.471 6.471 0 0 1-6.487 6.46zm.009-1.012a5.463 5.463 0 0 0 5.471-5.455 5.464 5.464 0 0 0-5.435-5.464 5.464 5.464 0 0 0-5.484 5.441 5.462 5.462 0 0 0 5.447 5.478z" style="fill:#f89521;stroke:#f89521;stroke-width:.25px" transform="translate(-1168.673 4295.792)"/>
        <path data-name="Path 14967" d="M1184.208-4281.383v-.531c0-.405.163-.576.573-.616a1.006 1.006 0 0 0 .921-1.2 1.022 1.022 0 0 0-1.024-.808 1.021 1.021 0 0 0-.969.929c-.039.36-.168.535-.423.574a.5.5 0 0 1-.59-.549 1.942 1.942 0 0 1 1.108-1.743 1.907 1.907 0 0 1 2.078.156 1.909 1.909 0 0 1 .839 1.864 1.937 1.937 0 0 1-1.293 1.665c-.162.064-.225.132-.211.3a4.934 4.934 0 0 1 0 .556.5.5 0 0 1-.512.535.5.5 0 0 1-.5-.524v-.051z" transform="translate(-1178.117 4288.928)" style="fill:#f89521;stroke:#f89521;stroke-width:.25px"/>
        <path data-name="Path 14968" d="M1188.294-4267.133a.634.634 0 0 1-.618.635.633.633 0 0 1-.634-.644.616.616 0 0 1 .63-.615.617.617 0 0 1 .622.624z" transform="translate(-1181.071 4276.825)" style="fill:#f89521;stroke:#f89521;stroke-width:.25px"/>
    </g>
</svg>
