<svg xmlns="http://www.w3.org/2000/svg" width="15.06" height="14.368" viewBox="0 0 15.06 14.368">
    <g data-name="Group 19064">
        <path data-name="Path 14971" d="M7.194 11.405c2.767 0 5.131.419 5.131 2.094s-2.349 2.106-5.131 2.106c-2.767 0-5.132-.415-5.132-2.091s2.348-2.109 5.132-2.109z" style="fill-rule:evenodd;fill:none;stroke:#7b6f72;stroke-linecap:round;stroke-linejoin:round;stroke-width:1.2px" transform="translate(-1.462 -1.837)"/>
        <path data-name="Path 14972" d="M7.194 9.015a3.277 3.277 0 1 1 .023 0z" style="fill-rule:evenodd;fill:none;stroke:#7b6f72;stroke-linecap:round;stroke-linejoin:round;stroke-width:1.2px" transform="translate(-1.462 -1.837)"/>
        <path data-name="Path 14973" d="M12.362 8.161a2.473 2.473 0 0 0 .056-4.888" style="fill:none;stroke:#7b6f72;stroke-linecap:round;stroke-linejoin:round;stroke-width:1.2px" transform="translate(-1.462 -1.837)"/>
        <path data-name="Path 14974" d="M13.946 11.049c1.163.173 1.976.581 1.976 1.421 0 .578-.382.953-1 1.188" style="fill:none;stroke:#7b6f72;stroke-linecap:round;stroke-linejoin:round;stroke-width:1.2px" transform="translate(-1.462 -1.837)"/>
    </g>
</svg>
